<mxfile host="app.diagrams.net" scale="10" border="0" modified="2023-05-10T08:45:21.933Z" agent="Mozilla/5.0 (Macintosh; Intel Mac OS X 10_15_7) AppleWebKit/537.36 (KHTML, like Gecko) Chrome/112.0.0.0 Safari/537.36" version="21.2.9" etag="zGk6jmtd8rc2uML-6HBX" type="github" pages="2">
  <diagram id="MLnWVdtr8z2fJo6pY5qV" name="Page-1">
    <mxGraphModel dx="1406" dy="682" grid="1" gridSize="10" guides="1" tooltips="1" connect="1" arrows="1" fold="1" page="1" pageScale="1" pageWidth="827" pageHeight="1169" math="0" shadow="0">
      <root>
        <mxCell id="0" />
        <mxCell id="1" parent="0" />
        <mxCell id="4" value="" style="rounded=0;whiteSpace=wrap;html=1;fillColor=#f9f7ed;strokeColor=#B5B2A3;" parent="1" vertex="1">
          <mxGeometry x="160" y="200" width="480" height="280" as="geometry" />
        </mxCell>
        <mxCell id="51" value="" style="rounded=0;whiteSpace=wrap;html=1;sketch=0;fillColor=#EFF3FC;strokeColor=#6c8ebf;" parent="1" vertex="1">
          <mxGeometry x="180" y="385" width="440" height="85" as="geometry" />
        </mxCell>
        <mxCell id="16" value="" style="edgeStyle=none;html=1;" parent="1" source="3" edge="1">
          <mxGeometry relative="1" as="geometry">
            <mxPoint x="180" y="270" as="targetPoint" />
          </mxGeometry>
        </mxCell>
        <mxCell id="3" value="User" style="shape=umlActor;verticalLabelPosition=bottom;verticalAlign=top;html=1;outlineConnect=0;" parent="1" vertex="1">
          <mxGeometry x="80" y="240" width="30" height="60" as="geometry" />
        </mxCell>
        <mxCell id="5" value="" style="rounded=0;whiteSpace=wrap;html=1;fillColor=#fff2cc;strokeColor=#d6b656;gradientColor=none;" parent="1" vertex="1">
          <mxGeometry x="670" y="200" width="100" height="280" as="geometry" />
        </mxCell>
        <mxCell id="50" value="" style="edgeStyle=none;sketch=0;html=1;startArrow=classic;startFill=1;fillColor=#d5e8d4;strokeColor=#82b366;" parent="1" source="6" target="20" edge="1">
          <mxGeometry relative="1" as="geometry" />
        </mxCell>
        <mxCell id="6" value="Cougar" style="rounded=0;whiteSpace=wrap;html=1;fillColor=#e1d5e7;strokeColor=#9673a6;" parent="1" vertex="1">
          <mxGeometry x="810" y="200" width="150" height="250" as="geometry" />
        </mxCell>
        <mxCell id="8" value="&lt;span&gt;Mars Worker&lt;/span&gt;" style="rounded=0;whiteSpace=wrap;html=1;fillColor=#cce5ff;strokeColor=#36393d;" parent="1" vertex="1">
          <mxGeometry x="298" y="400" width="95" height="60" as="geometry" />
        </mxCell>
        <mxCell id="9" value="Mars Worker" style="rounded=0;whiteSpace=wrap;html=1;fillColor=#cce5ff;strokeColor=#36393d;" parent="1" vertex="1">
          <mxGeometry x="190" y="400" width="95" height="60" as="geometry" />
        </mxCell>
        <mxCell id="56" value="" style="edgeStyle=none;sketch=0;html=1;startArrow=classic;startFill=1;entryX=0.5;entryY=0;entryDx=0;entryDy=0;fillColor=#d5e8d4;strokeColor=#82b366;" parent="1" source="10" target="51" edge="1">
          <mxGeometry relative="1" as="geometry" />
        </mxCell>
        <mxCell id="10" value="" style="rounded=0;whiteSpace=wrap;html=1;fillColor=#ffe6cc;strokeColor=#d79b00;" parent="1" vertex="1">
          <mxGeometry x="180" y="220" width="440" height="140" as="geometry" />
        </mxCell>
        <mxCell id="12" value="Mars Supervisor" style="text;html=1;align=center;verticalAlign=middle;resizable=0;points=[];autosize=1;" parent="1" vertex="1">
          <mxGeometry x="350" y="220" width="100" height="20" as="geometry" />
        </mxCell>
        <mxCell id="14" value="&lt;span&gt;Mars Worker&lt;/span&gt;" style="rounded=0;whiteSpace=wrap;html=1;fillColor=#cce5ff;strokeColor=#36393d;" parent="1" vertex="1">
          <mxGeometry x="515" y="400" width="95" height="60" as="geometry" />
        </mxCell>
        <mxCell id="15" value="&lt;b&gt;···&lt;/b&gt;" style="text;html=1;align=center;verticalAlign=middle;resizable=0;points=[];autosize=1;" parent="1" vertex="1">
          <mxGeometry x="458" y="420" width="30" height="20" as="geometry" />
        </mxCell>
        <mxCell id="49" value="" style="edgeStyle=none;sketch=0;html=1;startArrow=none;startFill=0;" parent="1" source="17" target="20" edge="1">
          <mxGeometry relative="1" as="geometry" />
        </mxCell>
        <mxCell id="17" value="Ray Cluster" style="rounded=0;whiteSpace=wrap;html=1;fillColor=#f5f5f5;fontColor=#333333;strokeColor=#666666;" parent="1" vertex="1">
          <mxGeometry x="160" y="510" width="610" height="50" as="geometry" />
        </mxCell>
        <mxCell id="20" value="OpenTSDB" style="shape=datastore;whiteSpace=wrap;html=1;rounded=0;fillColor=#d5e8d4;strokeColor=#82b366;" parent="1" vertex="1">
          <mxGeometry x="840" y="490" width="90" height="90" as="geometry" />
        </mxCell>
        <mxCell id="21" value="&lt;span&gt;Ray system job&lt;/span&gt;" style="text;html=1;align=center;verticalAlign=middle;resizable=0;points=[];autosize=1;" parent="1" vertex="1">
          <mxGeometry x="670" y="210" width="100" height="20" as="geometry" />
        </mxCell>
        <mxCell id="22" value="Request forward" style="rounded=0;whiteSpace=wrap;html=1;fillColor=#FBE38E;strokeColor=#d79b00;gradientColor=none;" parent="1" vertex="1">
          <mxGeometry x="680" y="240" width="80" height="110" as="geometry" />
        </mxCell>
        <mxCell id="23" value="Cougar monitor" style="rounded=0;whiteSpace=wrap;html=1;fillColor=#FBE38E;strokeColor=#d79b00;gradientColor=none;" parent="1" vertex="1">
          <mxGeometry x="680" y="360" width="80" height="110" as="geometry" />
        </mxCell>
        <mxCell id="30" value="" style="edgeStyle=none;html=1;" parent="1" source="24" target="29" edge="1">
          <mxGeometry relative="1" as="geometry" />
        </mxCell>
        <mxCell id="24" value="TileableGraph" style="rounded=0;whiteSpace=wrap;html=1;fillColor=#ffcc99;strokeColor=#36393d;" parent="1" vertex="1">
          <mxGeometry x="210" y="245" width="100" height="40" as="geometry" />
        </mxCell>
        <mxCell id="32" value="" style="edgeStyle=none;html=1;" parent="1" source="29" target="31" edge="1">
          <mxGeometry relative="1" as="geometry" />
        </mxCell>
        <mxCell id="29" value="ChunkGraph" style="rounded=0;whiteSpace=wrap;html=1;fillColor=#ffcc99;strokeColor=#36393d;" parent="1" vertex="1">
          <mxGeometry x="350" y="245" width="100" height="40" as="geometry" />
        </mxCell>
        <mxCell id="34" value="" style="edgeStyle=none;html=1;" parent="1" source="31" target="33" edge="1">
          <mxGeometry relative="1" as="geometry" />
        </mxCell>
        <mxCell id="31" value="SubtaskGraph" style="rounded=0;whiteSpace=wrap;html=1;fillColor=#ffcc99;strokeColor=#36393d;" parent="1" vertex="1">
          <mxGeometry x="490" y="245" width="100" height="40" as="geometry" />
        </mxCell>
        <mxCell id="37" value="" style="edgeStyle=none;html=1;" parent="1" source="33" target="36" edge="1">
          <mxGeometry relative="1" as="geometry" />
        </mxCell>
        <mxCell id="33" value="AutoScheduler" style="rounded=0;whiteSpace=wrap;html=1;fillColor=#ffcc99;strokeColor=#36393d;" parent="1" vertex="1">
          <mxGeometry x="490" y="305" width="100" height="40" as="geometry" />
        </mxCell>
        <mxCell id="39" value="" style="edgeStyle=none;html=1;" parent="1" source="36" target="38" edge="1">
          <mxGeometry relative="1" as="geometry" />
        </mxCell>
        <mxCell id="36" value="AutoScaler" style="rounded=0;whiteSpace=wrap;html=1;fillColor=#ffcc99;strokeColor=#36393d;" parent="1" vertex="1">
          <mxGeometry x="350" y="305" width="100" height="40" as="geometry" />
        </mxCell>
        <mxCell id="38" value="SubtaskManager" style="rounded=0;whiteSpace=wrap;html=1;fillColor=#ffcc99;strokeColor=#36393d;" parent="1" vertex="1">
          <mxGeometry x="210" y="305" width="100" height="40" as="geometry" />
        </mxCell>
        <mxCell id="47" value="" style="endArrow=classic;html=1;exitX=1;exitY=0.5;exitDx=0;exitDy=0;entryX=0;entryY=0.446;entryDx=0;entryDy=0;entryPerimeter=0;startArrow=classic;startFill=1;fillColor=#d5e8d4;strokeColor=#82b366;" parent="1" source="33" target="5" edge="1">
          <mxGeometry width="50" height="50" relative="1" as="geometry">
            <mxPoint x="490" y="380" as="sourcePoint" />
            <mxPoint x="540" y="330" as="targetPoint" />
          </mxGeometry>
        </mxCell>
        <mxCell id="48" value="" style="endArrow=classic;html=1;entryX=0;entryY=0.5;entryDx=0;entryDy=0;startArrow=classic;startFill=1;fillColor=#d5e8d4;strokeColor=#82b366;" parent="1" target="6" edge="1">
          <mxGeometry width="50" height="50" relative="1" as="geometry">
            <mxPoint x="770" y="325" as="sourcePoint" />
            <mxPoint x="680" y="334.8799999999999" as="targetPoint" />
          </mxGeometry>
        </mxCell>
        <mxCell id="54" value="&lt;span&gt;Mars Worker&lt;/span&gt;" style="rounded=0;whiteSpace=wrap;html=1;fillColor=#cce5ff;strokeColor=#36393d;" parent="1" vertex="1">
          <mxGeometry x="407" y="400" width="95" height="60" as="geometry" />
        </mxCell>
        <mxCell id="57" value="Mars Engine" style="text;html=1;align=center;verticalAlign=middle;resizable=0;points=[];autosize=1;strokeColor=none;fillColor=none;" parent="1" vertex="1">
          <mxGeometry x="360" y="200" width="80" height="20" as="geometry" />
        </mxCell>
      </root>
    </mxGraphModel>
  </diagram>
  <diagram id="GqZ_vtKEylUhFbklCTFC" name="第 2 页">
    <mxGraphModel dx="1406" dy="682" grid="1" gridSize="10" guides="1" tooltips="1" connect="1" arrows="1" fold="1" page="1" pageScale="1" pageWidth="827" pageHeight="1169" math="0" shadow="0">
      <root>
        <mxCell id="0" />
        <mxCell id="1" parent="0" />
        <mxCell id="MKIXolnXdk2s8Af-kWo5-1" value="" style="rounded=0;whiteSpace=wrap;html=1;fillColor=#f9f7ed;strokeColor=#B5B2A3;" vertex="1" parent="1">
          <mxGeometry x="160" y="200" width="480" height="320" as="geometry" />
        </mxCell>
        <mxCell id="MKIXolnXdk2s8Af-kWo5-2" value="" style="rounded=0;whiteSpace=wrap;html=1;fillColor=#ffe6cc;strokeColor=#d79b00;" vertex="1" parent="1">
          <mxGeometry x="170" y="210" width="460" height="180" as="geometry" />
        </mxCell>
        <mxCell id="MKIXolnXdk2s8Af-kWo5-3" value="" style="rounded=0;whiteSpace=wrap;html=1;sketch=0;fillColor=#f5f5f5;fontColor=#333333;strokeColor=#666666;" vertex="1" parent="1">
          <mxGeometry x="170" y="420" width="460" height="90" as="geometry" />
        </mxCell>
        <mxCell id="MKIXolnXdk2s8Af-kWo5-4" value="User" style="shape=umlActor;verticalLabelPosition=bottom;verticalAlign=top;html=1;outlineConnect=0;" vertex="1" parent="1">
          <mxGeometry x="80" y="240" width="30" height="60" as="geometry" />
        </mxCell>
        <mxCell id="MKIXolnXdk2s8Af-kWo5-5" value="" style="edgeStyle=orthogonalEdgeStyle;html=1;fontSize=10;elbow=vertical;curved=1;fillColor=#d5e8d4;strokeColor=#82b366;startArrow=classic;startFill=1;" edge="1" parent="1" source="MKIXolnXdk2s8Af-kWo5-6" target="MKIXolnXdk2s8Af-kWo5-8">
          <mxGeometry relative="1" as="geometry">
            <Array as="points">
              <mxPoint x="710" y="530" />
              <mxPoint x="575" y="530" />
            </Array>
          </mxGeometry>
        </mxCell>
        <mxCell id="MKIXolnXdk2s8Af-kWo5-6" value="" style="rounded=0;whiteSpace=wrap;html=1;fillColor=#f5f5f5;fontColor=#333333;strokeColor=#666666;" vertex="1" parent="1">
          <mxGeometry x="670" y="200" width="70" height="280" as="geometry" />
        </mxCell>
        <mxCell id="MKIXolnXdk2s8Af-kWo5-7" value="" style="edgeStyle=none;sketch=0;html=1;startArrow=classic;startFill=1;fillColor=#d5e8d4;strokeColor=#82b366;endArrow=none;endFill=0;" edge="1" parent="1" source="MKIXolnXdk2s8Af-kWo5-8" target="MKIXolnXdk2s8Af-kWo5-12">
          <mxGeometry relative="1" as="geometry" />
        </mxCell>
        <mxCell id="MKIXolnXdk2s8Af-kWo5-8" value="" style="rounded=0;whiteSpace=wrap;html=1;fillColor=#f5f5f5;strokeColor=#666666;fontColor=#333333;" vertex="1" parent="1">
          <mxGeometry x="329" y="540" width="410" height="100" as="geometry" />
        </mxCell>
        <mxCell id="MKIXolnXdk2s8Af-kWo5-9" value="" style="sketch=0;html=1;startArrow=none;startFill=1;fillColor=#d5e8d4;strokeColor=#82b366;exitX=0;exitY=0.5;exitDx=0;exitDy=0;entryX=0;entryY=0.5;entryDx=0;entryDy=0;edgeStyle=orthogonalEdgeStyle;curved=1;" edge="1" parent="1" source="MKIXolnXdk2s8Af-kWo5-3" target="MKIXolnXdk2s8Af-kWo5-12">
          <mxGeometry relative="1" as="geometry">
            <mxPoint y="360" as="sourcePoint" />
            <mxPoint x="-80" y="360" as="targetPoint" />
            <Array as="points">
              <mxPoint x="150" y="465" />
              <mxPoint x="150" y="590" />
            </Array>
          </mxGeometry>
        </mxCell>
        <mxCell id="MKIXolnXdk2s8Af-kWo5-10" value="" style="rounded=0;whiteSpace=wrap;html=1;" vertex="1" parent="1">
          <mxGeometry x="180" y="230" width="440" height="70" as="geometry" />
        </mxCell>
        <mxCell id="MKIXolnXdk2s8Af-kWo5-11" value="&lt;b&gt;Mars Supervisor&lt;/b&gt;" style="text;html=1;align=center;verticalAlign=middle;resizable=0;points=[];autosize=1;" vertex="1" parent="1">
          <mxGeometry x="340" y="205" width="120" height="30" as="geometry" />
        </mxCell>
        <mxCell id="MKIXolnXdk2s8Af-kWo5-12" value="OpenTSDB" style="shape=datastore;whiteSpace=wrap;html=1;rounded=0;fillColor=#d5e8d4;strokeColor=#82b366;" vertex="1" parent="1">
          <mxGeometry x="195" y="545" width="90" height="90" as="geometry" />
        </mxCell>
        <mxCell id="MKIXolnXdk2s8Af-kWo5-13" value="&lt;span&gt;&lt;font style=&quot;font-size: 10px;&quot;&gt;Ray system job&lt;/font&gt;&lt;/span&gt;" style="text;html=1;align=center;verticalAlign=middle;resizable=0;points=[];autosize=1;" vertex="1" parent="1">
          <mxGeometry x="660" y="195" width="90" height="30" as="geometry" />
        </mxCell>
        <mxCell id="MKIXolnXdk2s8Af-kWo5-14" value="&lt;font style=&quot;font-size: 10px;&quot;&gt;Request forward&lt;/font&gt;" style="rounded=0;whiteSpace=wrap;html=1;" vertex="1" parent="1">
          <mxGeometry x="680" y="225" width="50" height="110" as="geometry" />
        </mxCell>
        <mxCell id="MKIXolnXdk2s8Af-kWo5-15" value="&lt;font style=&quot;font-size: 10px;&quot;&gt;Cougar monitor&lt;/font&gt;" style="rounded=0;whiteSpace=wrap;html=1;" vertex="1" parent="1">
          <mxGeometry x="680" y="350" width="50" height="110" as="geometry" />
        </mxCell>
        <mxCell id="MKIXolnXdk2s8Af-kWo5-16" value="" style="edgeStyle=none;html=1;" edge="1" parent="1" source="MKIXolnXdk2s8Af-kWo5-17" target="MKIXolnXdk2s8Af-kWo5-20">
          <mxGeometry relative="1" as="geometry" />
        </mxCell>
        <mxCell id="MKIXolnXdk2s8Af-kWo5-17" value="tile" style="rounded=0;whiteSpace=wrap;html=1;fillColor=#f5f5f5;fontColor=#333333;strokeColor=#666666;" vertex="1" parent="1">
          <mxGeometry x="285" y="250" width="45" height="30" as="geometry" />
        </mxCell>
        <mxCell id="MKIXolnXdk2s8Af-kWo5-18" value="" style="group;fillColor=#f5f5f5;fontColor=#333333;strokeColor=#666666;container=0;" vertex="1" connectable="0" parent="1">
          <mxGeometry x="450" y="240" width="60" height="50" as="geometry" />
        </mxCell>
        <mxCell id="MKIXolnXdk2s8Af-kWo5-19" value="" style="edgeStyle=orthogonalEdgeStyle;curved=1;html=1;elbow=vertical;" edge="1" parent="1" source="MKIXolnXdk2s8Af-kWo5-20">
          <mxGeometry relative="1" as="geometry">
            <mxPoint x="450" y="265" as="targetPoint" />
          </mxGeometry>
        </mxCell>
        <mxCell id="MKIXolnXdk2s8Af-kWo5-20" value="ChunkGraph" style="rounded=0;whiteSpace=wrap;html=1;fillColor=#fff2cc;strokeColor=#d6b656;" vertex="1" parent="1">
          <mxGeometry x="350" y="245" width="80" height="40" as="geometry" />
        </mxCell>
        <mxCell id="MKIXolnXdk2s8Af-kWo5-21" value="TileableGraph" style="rounded=0;whiteSpace=wrap;html=1;fillColor=#fff2cc;strokeColor=#d6b656;" vertex="1" parent="1">
          <mxGeometry x="190" y="245" width="80" height="40" as="geometry" />
        </mxCell>
        <mxCell id="MKIXolnXdk2s8Af-kWo5-22" value="SubtaskGraph" style="rounded=0;whiteSpace=wrap;html=1;fillColor=#fff2cc;strokeColor=#d6b656;" vertex="1" parent="1">
          <mxGeometry x="530" y="245" width="80" height="40" as="geometry" />
        </mxCell>
        <mxCell id="MKIXolnXdk2s8Af-kWo5-23" value="SubtaskManager" style="rounded=0;whiteSpace=wrap;html=1;fillColor=#fff2cc;strokeColor=#d6b656;" vertex="1" parent="1">
          <mxGeometry x="210" y="335" width="120" height="50" as="geometry" />
        </mxCell>
        <mxCell id="MKIXolnXdk2s8Af-kWo5-24" value="" style="edgeStyle=none;html=1;" edge="1" parent="1" source="MKIXolnXdk2s8Af-kWo5-21" target="MKIXolnXdk2s8Af-kWo5-17">
          <mxGeometry relative="1" as="geometry" />
        </mxCell>
        <mxCell id="MKIXolnXdk2s8Af-kWo5-25" value="" style="edgeStyle=none;html=1;" edge="1" parent="1" source="MKIXolnXdk2s8Af-kWo5-4">
          <mxGeometry relative="1" as="geometry">
            <mxPoint x="180" y="270" as="targetPoint" />
          </mxGeometry>
        </mxCell>
        <mxCell id="MKIXolnXdk2s8Af-kWo5-26" value="" style="edgeStyle=orthogonalEdgeStyle;html=1;fontSize=10;elbow=vertical;entryX=0;entryY=0.5;entryDx=0;entryDy=0;fillColor=#d5e8d4;strokeColor=#82b366;curved=1;startArrow=classic;startFill=1;" edge="1" parent="1" source="MKIXolnXdk2s8Af-kWo5-27" target="MKIXolnXdk2s8Af-kWo5-6">
          <mxGeometry relative="1" as="geometry" />
        </mxCell>
        <mxCell id="MKIXolnXdk2s8Af-kWo5-27" value="AutoScheduler" style="rounded=0;whiteSpace=wrap;html=1;fillColor=#fff2cc;strokeColor=#d6b656;" vertex="1" parent="1">
          <mxGeometry x="470" y="335" width="120" height="50" as="geometry" />
        </mxCell>
        <mxCell id="MKIXolnXdk2s8Af-kWo5-28" value="" style="endArrow=classic;html=1;exitX=0.5;exitY=1;exitDx=0;exitDy=0;entryX=0.5;entryY=0;entryDx=0;entryDy=0;edgeStyle=orthogonalEdgeStyle;elbow=vertical;curved=1;" edge="1" parent="1" source="MKIXolnXdk2s8Af-kWo5-10" target="MKIXolnXdk2s8Af-kWo5-23">
          <mxGeometry width="50" height="50" relative="1" as="geometry">
            <mxPoint x="400" y="470" as="sourcePoint" />
            <mxPoint x="450" y="420" as="targetPoint" />
          </mxGeometry>
        </mxCell>
        <mxCell id="MKIXolnXdk2s8Af-kWo5-29" value="subtask graph" style="edgeLabel;html=1;align=center;verticalAlign=middle;resizable=0;points=[];" vertex="1" connectable="0" parent="MKIXolnXdk2s8Af-kWo5-28">
          <mxGeometry x="0.0922" y="-3" relative="1" as="geometry">
            <mxPoint as="offset" />
          </mxGeometry>
        </mxCell>
        <mxCell id="MKIXolnXdk2s8Af-kWo5-30" value="" style="endArrow=classic;html=1;exitX=0.5;exitY=1;exitDx=0;exitDy=0;edgeStyle=orthogonalEdgeStyle;elbow=vertical;curved=1;" edge="1" parent="1" source="MKIXolnXdk2s8Af-kWo5-10" target="MKIXolnXdk2s8Af-kWo5-27">
          <mxGeometry width="50" height="50" relative="1" as="geometry">
            <mxPoint x="410" y="310" as="sourcePoint" />
            <mxPoint x="280" y="350" as="targetPoint" />
          </mxGeometry>
        </mxCell>
        <mxCell id="MKIXolnXdk2s8Af-kWo5-31" value="" style="edgeStyle=orthogonalEdgeStyle;curved=1;html=1;elbow=vertical;" edge="1" parent="1" source="MKIXolnXdk2s8Af-kWo5-54" target="MKIXolnXdk2s8Af-kWo5-22">
          <mxGeometry relative="1" as="geometry" />
        </mxCell>
        <mxCell id="MKIXolnXdk2s8Af-kWo5-32" value="" style="group" vertex="1" connectable="0" parent="1">
          <mxGeometry x="180" y="418" width="120" height="87" as="geometry" />
        </mxCell>
        <mxCell id="MKIXolnXdk2s8Af-kWo5-33" value="" style="rounded=0;whiteSpace=wrap;html=1;" vertex="1" parent="MKIXolnXdk2s8Af-kWo5-32">
          <mxGeometry y="7" width="120" height="80" as="geometry" />
        </mxCell>
        <mxCell id="MKIXolnXdk2s8Af-kWo5-34" value="&lt;span style=&quot;&quot;&gt;&lt;b&gt;Mars Worker&lt;/b&gt;&lt;/span&gt;" style="text;html=1;align=center;verticalAlign=middle;resizable=0;points=[];autosize=1;strokeColor=none;fillColor=none;" vertex="1" parent="MKIXolnXdk2s8Af-kWo5-32">
          <mxGeometry x="10" width="100" height="30" as="geometry" />
        </mxCell>
        <mxCell id="MKIXolnXdk2s8Af-kWo5-35" value="&lt;font style=&quot;font-size: 10px;&quot;&gt;MainPool&lt;/font&gt;" style="rounded=0;whiteSpace=wrap;html=1;" vertex="1" parent="MKIXolnXdk2s8Af-kWo5-32">
          <mxGeometry x="10" y="27" width="40" height="50" as="geometry" />
        </mxCell>
        <mxCell id="MKIXolnXdk2s8Af-kWo5-36" value="&lt;font style=&quot;font-size: 10px;&quot;&gt;SubPool&lt;/font&gt;" style="rounded=0;whiteSpace=wrap;html=1;" vertex="1" parent="MKIXolnXdk2s8Af-kWo5-32">
          <mxGeometry x="60" y="27" width="40" height="40" as="geometry" />
        </mxCell>
        <mxCell id="MKIXolnXdk2s8Af-kWo5-37" value="&lt;font style=&quot;font-size: 10px;&quot;&gt;SubPool&lt;/font&gt;" style="rounded=0;whiteSpace=wrap;html=1;" vertex="1" parent="MKIXolnXdk2s8Af-kWo5-32">
          <mxGeometry x="65" y="32" width="40" height="40" as="geometry" />
        </mxCell>
        <mxCell id="MKIXolnXdk2s8Af-kWo5-38" value="&lt;font style=&quot;font-size: 10px;&quot;&gt;SubPool&lt;/font&gt;" style="rounded=0;whiteSpace=wrap;html=1;" vertex="1" parent="MKIXolnXdk2s8Af-kWo5-32">
          <mxGeometry x="70" y="37" width="40" height="40" as="geometry" />
        </mxCell>
        <mxCell id="MKIXolnXdk2s8Af-kWo5-39" value="" style="group" vertex="1" connectable="0" parent="1">
          <mxGeometry x="340" y="418" width="120" height="87" as="geometry" />
        </mxCell>
        <mxCell id="MKIXolnXdk2s8Af-kWo5-40" value="" style="rounded=0;whiteSpace=wrap;html=1;" vertex="1" parent="MKIXolnXdk2s8Af-kWo5-39">
          <mxGeometry y="7" width="120" height="80" as="geometry" />
        </mxCell>
        <mxCell id="MKIXolnXdk2s8Af-kWo5-41" value="&lt;span style=&quot;&quot;&gt;&lt;b&gt;Mars Worker&lt;/b&gt;&lt;/span&gt;" style="text;html=1;align=center;verticalAlign=middle;resizable=0;points=[];autosize=1;strokeColor=none;fillColor=none;" vertex="1" parent="MKIXolnXdk2s8Af-kWo5-39">
          <mxGeometry x="10" width="100" height="30" as="geometry" />
        </mxCell>
        <mxCell id="MKIXolnXdk2s8Af-kWo5-42" value="&lt;font style=&quot;font-size: 10px;&quot;&gt;MainPool&lt;/font&gt;" style="rounded=0;whiteSpace=wrap;html=1;" vertex="1" parent="MKIXolnXdk2s8Af-kWo5-39">
          <mxGeometry x="10" y="27" width="40" height="50" as="geometry" />
        </mxCell>
        <mxCell id="MKIXolnXdk2s8Af-kWo5-43" value="&lt;font style=&quot;font-size: 10px;&quot;&gt;SubPool&lt;/font&gt;" style="rounded=0;whiteSpace=wrap;html=1;" vertex="1" parent="MKIXolnXdk2s8Af-kWo5-39">
          <mxGeometry x="60" y="27" width="40" height="40" as="geometry" />
        </mxCell>
        <mxCell id="MKIXolnXdk2s8Af-kWo5-44" value="&lt;font style=&quot;font-size: 10px;&quot;&gt;SubPool&lt;/font&gt;" style="rounded=0;whiteSpace=wrap;html=1;" vertex="1" parent="MKIXolnXdk2s8Af-kWo5-39">
          <mxGeometry x="65" y="32" width="40" height="40" as="geometry" />
        </mxCell>
        <mxCell id="MKIXolnXdk2s8Af-kWo5-45" value="&lt;font style=&quot;font-size: 10px;&quot;&gt;SubPool&lt;/font&gt;" style="rounded=0;whiteSpace=wrap;html=1;" vertex="1" parent="MKIXolnXdk2s8Af-kWo5-39">
          <mxGeometry x="70" y="37" width="40" height="40" as="geometry" />
        </mxCell>
        <mxCell id="MKIXolnXdk2s8Af-kWo5-46" value="" style="group" vertex="1" connectable="0" parent="1">
          <mxGeometry x="500" y="418" width="120" height="87" as="geometry" />
        </mxCell>
        <mxCell id="MKIXolnXdk2s8Af-kWo5-47" value="" style="rounded=0;whiteSpace=wrap;html=1;" vertex="1" parent="MKIXolnXdk2s8Af-kWo5-46">
          <mxGeometry y="7" width="120" height="80" as="geometry" />
        </mxCell>
        <mxCell id="MKIXolnXdk2s8Af-kWo5-48" value="&lt;span style=&quot;&quot;&gt;&lt;b&gt;Mars Worker&lt;/b&gt;&lt;/span&gt;" style="text;html=1;align=center;verticalAlign=middle;resizable=0;points=[];autosize=1;strokeColor=none;fillColor=none;" vertex="1" parent="MKIXolnXdk2s8Af-kWo5-46">
          <mxGeometry x="10" width="100" height="30" as="geometry" />
        </mxCell>
        <mxCell id="MKIXolnXdk2s8Af-kWo5-49" value="&lt;font style=&quot;font-size: 10px;&quot;&gt;MainPool&lt;/font&gt;" style="rounded=0;whiteSpace=wrap;html=1;" vertex="1" parent="MKIXolnXdk2s8Af-kWo5-46">
          <mxGeometry x="10" y="27" width="40" height="50" as="geometry" />
        </mxCell>
        <mxCell id="MKIXolnXdk2s8Af-kWo5-50" value="&lt;font style=&quot;font-size: 10px;&quot;&gt;SubPool&lt;/font&gt;" style="rounded=0;whiteSpace=wrap;html=1;" vertex="1" parent="MKIXolnXdk2s8Af-kWo5-46">
          <mxGeometry x="60" y="27" width="40" height="40" as="geometry" />
        </mxCell>
        <mxCell id="MKIXolnXdk2s8Af-kWo5-51" value="&lt;font style=&quot;font-size: 10px;&quot;&gt;SubPool&lt;/font&gt;" style="rounded=0;whiteSpace=wrap;html=1;" vertex="1" parent="MKIXolnXdk2s8Af-kWo5-46">
          <mxGeometry x="65" y="32" width="40" height="40" as="geometry" />
        </mxCell>
        <mxCell id="MKIXolnXdk2s8Af-kWo5-52" value="&lt;font style=&quot;font-size: 10px;&quot;&gt;SubPool&lt;/font&gt;" style="rounded=0;whiteSpace=wrap;html=1;" vertex="1" parent="MKIXolnXdk2s8Af-kWo5-46">
          <mxGeometry x="70" y="37" width="40" height="40" as="geometry" />
        </mxCell>
        <mxCell id="MKIXolnXdk2s8Af-kWo5-53" value="" style="shape=flexArrow;endArrow=classic;startArrow=classic;html=1;fontSize=10;curved=1;elbow=vertical;startWidth=10;startSize=2.942857142857143;endWidth=10;endSize=1.875;" edge="1" parent="1">
          <mxGeometry width="100" height="100" relative="1" as="geometry">
            <mxPoint x="400" y="420" as="sourcePoint" />
            <mxPoint x="399.5799999999999" y="390" as="targetPoint" />
          </mxGeometry>
        </mxCell>
        <mxCell id="MKIXolnXdk2s8Af-kWo5-54" value="" style="rounded=0;whiteSpace=wrap;html=1;" vertex="1" parent="1">
          <mxGeometry x="450" y="240" width="60" height="50" as="geometry" />
        </mxCell>
        <mxCell id="MKIXolnXdk2s8Af-kWo5-55" value="assign" style="rounded=0;whiteSpace=wrap;html=1;fillColor=#f5f5f5;fontColor=#333333;strokeColor=#666666;" vertex="1" parent="1">
          <mxGeometry x="455" y="245" width="50" height="20" as="geometry" />
        </mxCell>
        <mxCell id="MKIXolnXdk2s8Af-kWo5-56" value="fuse" style="rounded=0;whiteSpace=wrap;html=1;fillColor=#f5f5f5;fontColor=#333333;strokeColor=#666666;" vertex="1" parent="1">
          <mxGeometry x="455" y="265" width="50" height="20" as="geometry" />
        </mxCell>
        <mxCell id="MKIXolnXdk2s8Af-kWo5-57" value="" style="rounded=0;whiteSpace=wrap;html=1;fontSize=10;" vertex="1" parent="1">
          <mxGeometry x="339" y="559.5" width="190" height="70" as="geometry" />
        </mxCell>
        <mxCell id="MKIXolnXdk2s8Af-kWo5-58" value="历史资源画像" style="rounded=0;whiteSpace=wrap;html=1;fontSize=10;" vertex="1" parent="1">
          <mxGeometry x="349" y="575" width="80" height="50" as="geometry" />
        </mxCell>
        <mxCell id="MKIXolnXdk2s8Af-kWo5-59" value="资源画像预测" style="rounded=0;whiteSpace=wrap;html=1;fontSize=10;" vertex="1" parent="1">
          <mxGeometry x="439" y="575" width="80" height="50" as="geometry" />
        </mxCell>
        <mxCell id="MKIXolnXdk2s8Af-kWo5-60" value="Cougar MetaData" style="rounded=0;whiteSpace=wrap;html=1;fontSize=10;" vertex="1" parent="1">
          <mxGeometry x="539" y="559.5" width="190" height="70" as="geometry" />
        </mxCell>
        <mxCell id="MKIXolnXdk2s8Af-kWo5-61" value="Cougar Server" style="text;html=1;align=center;verticalAlign=middle;resizable=0;points=[];autosize=1;strokeColor=none;fillColor=none;fontSize=10;" vertex="1" parent="1">
          <mxGeometry x="389" y="549.5" width="90" height="30" as="geometry" />
        </mxCell>
        <mxCell id="MKIXolnXdk2s8Af-kWo5-62" value="&lt;b&gt;Cougar&lt;/b&gt;" style="text;html=1;align=center;verticalAlign=middle;resizable=0;points=[];autosize=1;strokeColor=none;fillColor=none;fontSize=10;" vertex="1" parent="1">
          <mxGeometry x="501" y="533.5" width="60" height="30" as="geometry" />
        </mxCell>
        <mxCell id="MKIXolnXdk2s8Af-kWo5-63" value="df.execute()" style="text;html=1;align=center;verticalAlign=middle;resizable=0;points=[];autosize=1;strokeColor=none;fillColor=none;fontSize=10;" vertex="1" parent="1">
          <mxGeometry x="102" y="250" width="71" height="24" as="geometry" />
        </mxCell>
      </root>
    </mxGraphModel>
  </diagram>
</mxfile>
